<svg xmlns="http://www.w3.org/2000/svg" width="1440" height="900"><path d="M687,409L585,417L695,527Z" fill="#515671" stroke="#515671" stroke-width="1.51"/><path d="M522,523L658,599L695,527Z" fill="#494d6a" stroke="#494d6a" stroke-width="1.51"/><path d="M585,417L522,523L695,527Z" fill="#4c506d" stroke="#4c506d" stroke-width="1.51"/><path d="M695,527L781,513L687,409Z" fill="#515672" stroke="#515672" stroke-width="1.51"/><path d="M801,618L781,513L695,527Z" fill="#4b4f6c" stroke="#4b4f6c" stroke-width="1.51"/><path d="M781,513L804,395L687,409Z" fill="#525672" stroke="#525672" stroke-width="1.51"/><path d="M529,299L465,405L585,417Z" fill="#464a68" stroke="#464a68" stroke-width="1.51"/><path d="M585,417L465,405L522,523Z" fill="#4b506d" stroke="#4b506d" stroke-width="1.51"/><path d="M683,276L585,417L687,409Z" fill="#4b506c" stroke="#4b506c" stroke-width="1.51"/><path d="M522,523L524,620L658,599Z" fill="#444867" stroke="#444867" stroke-width="1.51"/><path d="M460,596L524,620L522,523Z" fill="#414564" stroke="#414564" stroke-width="1.51"/><path d="M782,279L683,276L687,409Z" fill="#4b4f6c" stroke="#4b4f6c" stroke-width="1.51"/><path d="M683,276L529,299L585,417Z" fill="#464b68" stroke="#464b68" stroke-width="1.51"/><path d="M465,405L439,514L522,523Z" fill="#474b69" stroke="#474b69" stroke-width="1.51"/><path d="M658,599L801,618L695,527Z" fill="#4b4f6c" stroke="#4b4f6c" stroke-width="1.51"/><path d="M781,513L904,501L804,395Z" fill="#4d526f" stroke="#4d526f" stroke-width="1.51"/><path d="M682,737L801,618L658,599Z" fill="#454a68" stroke="#454a68" stroke-width="1.51"/><path d="M439,514L460,596L522,523Z" fill="#434765" stroke="#434765" stroke-width="1.51"/><path d="M804,395L782,279L687,409Z" fill="#4c506d" stroke="#4c506d" stroke-width="1.51"/><path d="M801,618L904,501L781,513Z" fill="#484d6a" stroke="#484d6a" stroke-width="1.51"/><path d="M804,395L901,286L782,279Z" fill="#464a68" stroke="#464a68" stroke-width="1.51"/><path d="M564,744L658,599L524,620Z" fill="#404363" stroke="#404363" stroke-width="1.51"/><path d="M564,744L682,737L658,599Z" fill="#3f4363" stroke="#3f4363" stroke-width="1.51"/><path d="M904,501L908,407L804,395Z" fill="#4c516d" stroke="#4c516d" stroke-width="1.51"/><path d="M445,723L564,744L524,620Z" fill="#3a3e5e" stroke="#3a3e5e" stroke-width="1.51"/><path d="M682,737L804,704L801,618Z" fill="#414665" stroke="#414665" stroke-width="1.51"/><path d="M801,618L900,634L904,501Z" fill="#444866" stroke="#444866" stroke-width="1.51"/><path d="M529,299L456,250L465,405Z" fill="#414464" stroke="#414464" stroke-width="1.51"/><path d="M308,386L309,520L439,514Z" fill="#424765" stroke="#424765" stroke-width="1.51"/><path d="M570,152L456,250L529,299Z" fill="#3c4060" stroke="#3c4060" stroke-width="1.51"/><path d="M570,152L529,299L683,276Z" fill="#404463" stroke="#404463" stroke-width="1.51"/><path d="M877,697L900,634L801,618Z" fill="#404463" stroke="#404463" stroke-width="1.51"/><path d="M904,501L975,406L908,407Z" fill="#4a4e6c" stroke="#4a4e6c" stroke-width="1.51"/><path d="M460,596L445,723L524,620Z" fill="#3c405f" stroke="#3c405f" stroke-width="1.51"/><path d="M314,645L445,723L460,596Z" fill="#383c5d" stroke="#383c5d" stroke-width="1.51"/><path d="M782,279L775,182L683,276Z" fill="#454967" stroke="#454967" stroke-width="1.51"/><path d="M901,286L775,182L782,279Z" fill="#414665" stroke="#414665" stroke-width="1.51"/><path d="M908,407L901,286L804,395Z" fill="#474b69" stroke="#474b69" stroke-width="1.51"/><path d="M895,820L877,697L804,704Z" fill="#3a3e5e" stroke="#3a3e5e" stroke-width="1.51"/><path d="M804,704L877,697L801,618Z" fill="#404463" stroke="#404463" stroke-width="1.51"/><path d="M656,142L570,152L683,276Z" fill="#3e4262" stroke="#3e4262" stroke-width="1.51"/><path d="M775,182L656,142L683,276Z" fill="#424665" stroke="#424665" stroke-width="1.51"/><path d="M439,514L309,520L460,596Z" fill="#3f4363" stroke="#3f4363" stroke-width="1.51"/><path d="M308,386L439,514L465,405Z" fill="#454967" stroke="#454967" stroke-width="1.51"/><path d="M908,407L977,293L901,286Z" fill="#424665" stroke="#424665" stroke-width="1.51"/><path d="M1004,505L975,406L904,501Z" fill="#484c6a" stroke="#484c6a" stroke-width="1.51"/><path d="M325,267L308,386L465,405Z" fill="#3d4261" stroke="#3d4261" stroke-width="1.51"/><path d="M456,250L325,267L465,405Z" fill="#3d4060" stroke="#3d4060" stroke-width="1.51"/><path d="M570,152L418,196L456,250Z" fill="#383c5d" stroke="#383c5d" stroke-width="1.51"/><path d="M985,630L1004,505L904,501Z" fill="#434765" stroke="#434765" stroke-width="1.51"/><path d="M985,630L904,501L900,634Z" fill="#414564" stroke="#414564" stroke-width="1.51"/><path d="M682,737L792,830L804,704Z" fill="#3d4061" stroke="#3d4061" stroke-width="1.51"/><path d="M564,744L686,835L682,737Z" fill="#3a3e5e" stroke="#3a3e5e" stroke-width="1.51"/><path d="M578,867L686,835L564,744Z" fill="#363a5b" stroke="#363a5b" stroke-width="1.51"/><path d="M309,520L314,645L460,596Z" fill="#3b3f5f" stroke="#3b3f5f" stroke-width="1.51"/><path d="M418,196L325,267L456,250Z" fill="#373b5c" stroke="#373b5c" stroke-width="1.51"/><path d="M877,697L985,630L900,634Z" fill="#3d4160" stroke="#3d4160" stroke-width="1.51"/><path d="M1013,701L985,630L877,697Z" fill="#3a3d5e" stroke="#3a3d5e" stroke-width="1.51"/><path d="M901,286L879,140L775,182Z" fill="#3d4161" stroke="#3d4161" stroke-width="1.51"/><path d="M975,406L977,293L908,407Z" fill="#444867" stroke="#444867" stroke-width="1.51"/><path d="M1125,274L977,293L975,406Z" fill="#3e4261" stroke="#3e4261" stroke-width="1.51"/><path d="M314,645L347,724L445,723Z" fill="#333759" stroke="#333759" stroke-width="1.51"/><path d="M462,852L578,867L564,744Z" fill="#323658" stroke="#323658" stroke-width="1.51"/><path d="M686,835L792,830L682,737Z" fill="#3c4060" stroke="#3c4060" stroke-width="1.51"/><path d="M309,520L205,594L314,645Z" fill="#373b5c" stroke="#373b5c" stroke-width="1.51"/><path d="M314,645L251,740L347,724Z" fill="#303456" stroke="#303456" stroke-width="1.51"/><path d="M308,386L246,506L309,520Z" fill="#3f4463" stroke="#3f4463" stroke-width="1.51"/><path d="M205,386L246,506L308,386Z" fill="#3e4261" stroke="#3e4261" stroke-width="1.51"/><path d="M686,835L798,922L792,830Z" fill="#36395b" stroke="#36395b" stroke-width="1.51"/><path d="M462,852L564,744L445,723Z" fill="#343759" stroke="#343759" stroke-width="1.51"/><path d="M656,142L652,65L570,152Z" fill="#393d5d" stroke="#393d5d" stroke-width="1.51"/><path d="M570,152L443,74L418,196Z" fill="#343859" stroke="#343859" stroke-width="1.51"/><path d="M766,76L652,65L656,142Z" fill="#3a3e5e" stroke="#3a3e5e" stroke-width="1.51"/><path d="M766,76L656,142L775,182Z" fill="#3e4161" stroke="#3e4161" stroke-width="1.51"/><path d="M986,181L879,140L901,286Z" fill="#3a3e5e" stroke="#3a3e5e" stroke-width="1.51"/><path d="M193,301L205,386L308,386Z" fill="#393c5d" stroke="#393c5d" stroke-width="1.51"/><path d="M418,196L332,195L325,267Z" fill="#343859" stroke="#343859" stroke-width="1.51"/><path d="M333,65L332,195L418,196Z" fill="#303456" stroke="#303456" stroke-width="1.51"/><path d="M879,140L766,76L775,182Z" fill="#3a3e5f" stroke="#3a3e5f" stroke-width="1.51"/><path d="M322,823L462,852L445,723Z" fill="#2e3255" stroke="#2e3255" stroke-width="1.51"/><path d="M652,65L558,48L570,152Z" fill="#35395b" stroke="#35395b" stroke-width="1.51"/><path d="M633,-37L558,48L652,65Z" fill="#323658" stroke="#323658" stroke-width="1.51"/><path d="M792,830L895,820L804,704Z" fill="#383c5d" stroke="#383c5d" stroke-width="1.51"/><path d="M863,926L895,820L792,830Z" fill="#323658" stroke="#323658" stroke-width="1.51"/><path d="M985,630L1092,524L1004,505Z" fill="#404363" stroke="#404363" stroke-width="1.51"/><path d="M895,820L1013,701L877,697Z" fill="#373b5c" stroke="#373b5c" stroke-width="1.51"/><path d="M558,48L443,74L570,152Z" fill="#333758" stroke="#333758" stroke-width="1.51"/><path d="M193,301L308,386L325,267Z" fill="#383b5c" stroke="#383b5c" stroke-width="1.51"/><path d="M977,293L986,181L901,286Z" fill="#3c4060" stroke="#3c4060" stroke-width="1.51"/><path d="M879,140L898,34L766,76Z" fill="#35395a" stroke="#35395a" stroke-width="1.51"/><path d="M1084,199L986,181L977,293Z" fill="#373b5c" stroke="#373b5c" stroke-width="1.51"/><path d="M246,506L205,594L309,520Z" fill="#393e5e" stroke="#393e5e" stroke-width="1.51"/><path d="M347,724L322,823L445,723Z" fill="#303356" stroke="#303356" stroke-width="1.51"/><path d="M116,594L205,594L100,490Z" fill="#333759" stroke="#333759" stroke-width="1.51"/><path d="M1004,505L1142,425L975,406Z" fill="#454a68" stroke="#454a68" stroke-width="1.51"/><path d="M1100,617L1092,524L985,630Z" fill="#3b3f60" stroke="#3b3f60" stroke-width="1.51"/><path d="M205,594L251,740L314,645Z" fill="#323557" stroke="#323557" stroke-width="1.51"/><path d="M251,740L322,823L347,724Z" fill="#2c3053" stroke="#2c3053" stroke-width="1.51"/><path d="M1110,722L1100,617L1013,701Z" fill="#343859" stroke="#343859" stroke-width="1.51"/><path d="M651,952L798,922L686,835Z" fill="#34385a" stroke="#34385a" stroke-width="1.51"/><path d="M651,952L686,835L578,867Z" fill="#323658" stroke="#323658" stroke-width="1.51"/><path d="M573,944L578,867L462,852Z" fill="#2d3254" stroke="#2d3254" stroke-width="1.51"/><path d="M428,978L573,944L462,852Z" fill="#2b2f52" stroke="#2b2f52" stroke-width="1.51"/><path d="M205,386L132,396L246,506Z" fill="#3b4060" stroke="#3b4060" stroke-width="1.51"/><path d="M242,142L193,301L325,267Z" fill="#313557" stroke="#313557" stroke-width="1.51"/><path d="M242,142L325,267L332,195Z" fill="#303457" stroke="#303457" stroke-width="1.51"/><path d="M573,944L651,952L578,867Z" fill="#303356" stroke="#303356" stroke-width="1.51"/><path d="M1110,722L1013,701L1012,870Z" fill="#303456" stroke="#303456" stroke-width="1.51"/><path d="M1013,701L1100,617L985,630Z" fill="#393c5d" stroke="#393c5d" stroke-width="1.51"/><path d="M1190,400L1142,425L1206,486Z" fill="#3f4362" stroke="#3f4362" stroke-width="1.51"/><path d="M1092,524L1142,425L1004,505Z" fill="#424665" stroke="#424665" stroke-width="1.51"/><path d="M798,922L863,926L792,830Z" fill="#313557" stroke="#313557" stroke-width="1.51"/><path d="M748,1082L863,926L798,922Z" fill="#313557" stroke="#313557" stroke-width="1.51"/><path d="M766,76L633,-37L652,65Z" fill="#35395b" stroke="#35395b" stroke-width="1.51"/><path d="M986,181L898,34L879,140Z" fill="#343859" stroke="#343859" stroke-width="1.51"/><path d="M1031,36L898,34L986,181Z" fill="#303456" stroke="#303456" stroke-width="1.51"/><path d="M757,-82L633,-37L766,76Z" fill="#35395a" stroke="#35395a" stroke-width="1.51"/><path d="M558,48L534,-65L443,74Z" fill="#2d3154" stroke="#2d3154" stroke-width="1.51"/><path d="M443,74L333,65L418,196Z" fill="#2f3255" stroke="#2f3255" stroke-width="1.51"/><path d="M308,-27L333,65L443,74Z" fill="#282c4f" stroke="#282c4f" stroke-width="1.51"/><path d="M193,301L132,396L205,386Z" fill="#373a5b" stroke="#373a5b" stroke-width="1.51"/><path d="M205,594L129,722L251,740Z" fill="#2d3153" stroke="#2d3153" stroke-width="1.51"/><path d="M89,295L132,396L193,301Z" fill="#323758" stroke="#323758" stroke-width="1.51"/><path d="M333,65L242,142L332,195Z" fill="#2c3053" stroke="#2c3053" stroke-width="1.51"/><path d="M1125,274L1084,199L977,293Z" fill="#383b5c" stroke="#383b5c" stroke-width="1.51"/><path d="M1142,425L1125,274L975,406Z" fill="#3f4362" stroke="#3f4362" stroke-width="1.51"/><path d="M1012,870L1013,701L895,820Z" fill="#313557" stroke="#313557" stroke-width="1.51"/><path d="M1206,486L1142,425L1092,524Z" fill="#3f4463" stroke="#3f4463" stroke-width="1.51"/><path d="M100,490L205,594L246,506Z" fill="#373b5c" stroke="#373b5c" stroke-width="1.51"/><path d="M299,980L428,978L322,823Z" fill="#25294d" stroke="#25294d" stroke-width="1.51"/><path d="M132,396L100,490L246,506Z" fill="#3b3f5f" stroke="#3b3f5f" stroke-width="1.51"/><path d="M863,926L1012,870L895,820Z" fill="#2d3154" stroke="#2d3154" stroke-width="1.51"/><path d="M633,-37L534,-65L558,48Z" fill="#2e3355" stroke="#2e3355" stroke-width="1.51"/><path d="M572,-130L534,-65L633,-37Z" fill="#2f3355" stroke="#2f3355" stroke-width="1.51"/><path d="M322,823L428,978L462,852Z" fill="#272c50" stroke="#272c50" stroke-width="1.51"/><path d="M574,1057L653,1059L651,952Z" fill="#313457" stroke="#313457" stroke-width="1.51"/><path d="M197,812L322,823L251,740Z" fill="#282c50" stroke="#282c50" stroke-width="1.51"/><path d="M1142,425L1190,400L1125,274Z" fill="#3b3f5f" stroke="#3b3f5f" stroke-width="1.51"/><path d="M1206,486L1092,524L1100,617Z" fill="#3b3f5f" stroke="#3b3f5f" stroke-width="1.51"/><path d="M129,722L197,812L251,740Z" fill="#282b4f" stroke="#282b4f" stroke-width="1.51"/><path d="M898,34L757,-82L766,76Z" fill="#313558" stroke="#313558" stroke-width="1.51"/><path d="M1249,635L1206,486L1100,617Z" fill="#373b5c" stroke="#373b5c" stroke-width="1.51"/><path d="M27,710L129,722L116,594Z" fill="#292d50" stroke="#292d50" stroke-width="1.51"/><path d="M116,594L129,722L205,594Z" fill="#2e3254" stroke="#2e3254" stroke-width="1.51"/><path d="M-36,378L-35,479L100,490Z" fill="#35395b" stroke="#35395b" stroke-width="1.51"/><path d="M94,179L89,295L193,301Z" fill="#2d3154" stroke="#2d3154" stroke-width="1.51"/><path d="M534,-65L452,-80L443,74Z" fill="#2a2e51" stroke="#2a2e51" stroke-width="1.51"/><path d="M333,65L193,48L242,142Z" fill="#272b4e" stroke="#272b4e" stroke-width="1.51"/><path d="M242,142L94,179L193,301Z" fill="#2c2f52" stroke="#2c2f52" stroke-width="1.51"/><path d="M465,-150L452,-80L534,-65Z" fill="#2a2e52" stroke="#2a2e52" stroke-width="1.51"/><path d="M1096,45L1031,36L1084,199Z" fill="#2c3053" stroke="#2c3053" stroke-width="1.51"/><path d="M1084,199L1031,36L986,181Z" fill="#313556" stroke="#313556" stroke-width="1.51"/><path d="M898,34L918,-57L757,-82Z" fill="#2f3355" stroke="#2f3355" stroke-width="1.51"/><path d="M1196,180L1084,199L1125,274Z" fill="#323657" stroke="#323657" stroke-width="1.51"/><path d="M651,952L748,1082L798,922Z" fill="#34385a" stroke="#34385a" stroke-width="1.51"/><path d="M863,926L1028,927L1012,870Z" fill="#2a2e51" stroke="#2a2e51" stroke-width="1.51"/><path d="M574,1057L651,952L573,944Z" fill="#2f3356" stroke="#2f3356" stroke-width="1.51"/><path d="M428,978L574,1057L573,944Z" fill="#2c3053" stroke="#2c3053" stroke-width="1.51"/><path d="M974,-62L918,-57L898,34Z" fill="#2c3053" stroke="#2c3053" stroke-width="1.51"/><path d="M1110,722L1216,710L1100,617Z" fill="#323557" stroke="#323557" stroke-width="1.51"/><path d="M1012,870L1133,863L1110,722Z" fill="#2a2e52" stroke="#2a2e52" stroke-width="1.51"/><path d="M987,1032L1028,927L863,926Z" fill="#2a2e52" stroke="#2a2e52" stroke-width="1.51"/><path d="M452,-80L308,-27L443,74Z" fill="#272b4f" stroke="#272b4f" stroke-width="1.51"/><path d="M1190,400L1215,281L1125,274Z" fill="#373b5c" stroke="#373b5c" stroke-width="1.51"/><path d="M1353,405L1215,281L1190,400Z" fill="#373b5c" stroke="#373b5c" stroke-width="1.51"/><path d="M690,-151L633,-37L757,-82Z" fill="#343859" stroke="#343859" stroke-width="1.51"/><path d="M690,-151L572,-130L633,-37Z" fill="#313557" stroke="#313557" stroke-width="1.51"/><path d="M452,-80L305,-151L308,-27Z" fill="#24294d" stroke="#24294d" stroke-width="1.51"/><path d="M428,978L420,1067L574,1057Z" fill="#2a2e51" stroke="#2a2e51" stroke-width="1.51"/><path d="M231,935L299,980L322,823Z" fill="#21264b" stroke="#21264b" stroke-width="1.51"/><path d="M231,935L322,823L197,812Z" fill="#23274c" stroke="#23274c" stroke-width="1.51"/><path d="M308,-27L193,48L333,65Z" fill="#23284c" stroke="#23284c" stroke-width="1.51"/><path d="M88,856L231,935L197,812Z" fill="#1f2449" stroke="#1f2449" stroke-width="1.51"/><path d="M193,48L94,179L242,142Z" fill="#262a4e" stroke="#262a4e" stroke-width="1.51"/><path d="M653,1059L748,1082L651,952Z" fill="#333759" stroke="#333759" stroke-width="1.51"/><path d="M574,1057L748,1082L653,1059Z" fill="#323658" stroke="#323658" stroke-width="1.51"/><path d="M1223,854L1216,710L1110,722Z" fill="#2a2e51" stroke="#2a2e51" stroke-width="1.51"/><path d="M1206,486L1313,483L1190,400Z" fill="#3d4161" stroke="#3d4161" stroke-width="1.51"/><path d="M1031,36L974,-62L898,34Z" fill="#2a2e51" stroke="#2a2e51" stroke-width="1.51"/><path d="M1196,180L1096,45L1084,199Z" fill="#2d3154" stroke="#2d3154" stroke-width="1.51"/><path d="M791,-180L690,-151L757,-82Z" fill="#343859" stroke="#343859" stroke-width="1.51"/><path d="M1215,281L1196,180L1125,274Z" fill="#323557" stroke="#323557" stroke-width="1.51"/><path d="M918,-57L895,-142L757,-82Z" fill="#2f3355" stroke="#2f3355" stroke-width="1.51"/><path d="M1102,-72L974,-62L1031,36Z" fill="#272b4f" stroke="#272b4f" stroke-width="1.51"/><path d="M1028,927L1133,863L1012,870Z" fill="#272c4f" stroke="#272c4f" stroke-width="1.51"/><path d="M1216,710L1249,635L1100,617Z" fill="#323557" stroke="#323557" stroke-width="1.51"/><path d="M342,1086L420,1067L428,978Z" fill="#272b4f" stroke="#272b4f" stroke-width="1.51"/><path d="M574,1057L342,1086L748,1082Z" fill="#2e3254" stroke="#2e3254" stroke-width="1.51"/><path d="M342,1086L428,978L299,980Z" fill="#24294d" stroke="#24294d" stroke-width="1.51"/><path d="M190,-42L126,29L193,48Z" fill="#1d2247" stroke="#1d2247" stroke-width="1.51"/><path d="M572,-130L465,-150L534,-65Z" fill="#2c3053" stroke="#2c3053" stroke-width="1.51"/><path d="M690,-151L465,-150L572,-130Z" fill="#2e3355" stroke="#2e3355" stroke-width="1.51"/><path d="M-14,634L27,710L116,594Z" fill="#292d50" stroke="#292d50" stroke-width="1.51"/><path d="M129,722L88,856L197,812Z" fill="#23274b" stroke="#23274b" stroke-width="1.51"/><path d="M-14,634L116,594L100,490Z" fill="#2f3356" stroke="#2f3356" stroke-width="1.51"/><path d="M-14,634L100,490L-35,479Z" fill="#303456" stroke="#303456" stroke-width="1.51"/><path d="M919,1082L987,1032L863,926Z" fill="#2c3053" stroke="#2c3053" stroke-width="1.51"/><path d="M1028,927L1127,976L1133,863Z" fill="#24294d" stroke="#24294d" stroke-width="1.51"/><path d="M973,-148L895,-142L918,-57Z" fill="#2c3053" stroke="#2c3053" stroke-width="1.51"/><path d="M973,-148L918,-57L974,-62Z" fill="#2a2f52" stroke="#2a2f52" stroke-width="1.51"/><path d="M895,-142L791,-180L757,-82Z" fill="#313457" stroke="#313457" stroke-width="1.51"/><path d="M690,-151L791,-180L465,-150Z" fill="#323558" stroke="#323558" stroke-width="1.51"/><path d="M748,1082L919,1082L863,926Z" fill="#2f3356" stroke="#2f3356" stroke-width="1.51"/><path d="M1249,635L1313,483L1206,486Z" fill="#373b5c" stroke="#373b5c" stroke-width="1.51"/><path d="M1215,281L1343,279L1196,180Z" fill="#2f3355" stroke="#2f3355" stroke-width="1.51"/><path d="M187,1037L342,1086L299,980Z" fill="#21264a" stroke="#21264a" stroke-width="1.51"/><path d="M28,837L88,856L129,722Z" fill="#1f2449" stroke="#1f2449" stroke-width="1.51"/><path d="M27,710L28,837L129,722Z" fill="#22274b" stroke="#22274b" stroke-width="1.51"/><path d="M100,490L132,396L-36,378Z" fill="#35395b" stroke="#35395b" stroke-width="1.51"/><path d="M-36,378L132,396L89,295Z" fill="#313557" stroke="#313557" stroke-width="1.51"/><path d="M21,185L-17,315L89,295Z" fill="#292d51" stroke="#292d51" stroke-width="1.51"/><path d="M21,185L89,295L94,179Z" fill="#282c4f" stroke="#282c4f" stroke-width="1.51"/><path d="M193,48L126,29L94,179Z" fill="#21264a" stroke="#21264a" stroke-width="1.51"/><path d="M190,-42L193,48L308,-27Z" fill="#1f2449" stroke="#1f2449" stroke-width="1.51"/><path d="M-26,85L21,185L94,179Z" fill="#21254a" stroke="#21254a" stroke-width="1.51"/><path d="M-17,315L-36,378L89,295Z" fill="#2d3154" stroke="#2d3154" stroke-width="1.51"/><path d="M-89,409L-36,378L-144,312Z" fill="#2f3355" stroke="#2f3355" stroke-width="1.51"/><path d="M305,-151L190,-42L308,-27Z" fill="#21264a" stroke="#21264a" stroke-width="1.51"/><path d="M420,1067L342,1086L574,1057Z" fill="#292d50" stroke="#292d50" stroke-width="1.51"/><path d="M748,1082L1091,1090L919,1082Z" fill="#2c3053" stroke="#2c3053" stroke-width="1.51"/><path d="M187,1037L299,980L231,935Z" fill="#1f2449" stroke="#1f2449" stroke-width="1.51"/><path d="M1342,757L1360,619L1249,635Z" fill="#2b2f52" stroke="#2b2f52" stroke-width="1.51"/><path d="M1249,635L1360,619L1313,483Z" fill="#323657" stroke="#323657" stroke-width="1.51"/><path d="M1133,863L1223,854L1110,722Z" fill="#282c50" stroke="#282c50" stroke-width="1.51"/><path d="M1212,977L1223,854L1133,863Z" fill="#202549" stroke="#202549" stroke-width="1.51"/><path d="M1212,977L1127,976L1237,1042Z" fill="#202549" stroke="#202549" stroke-width="1.51"/><path d="M987,1032L1127,976L1028,927Z" fill="#262b4e" stroke="#262b4e" stroke-width="1.51"/><path d="M895,-142L973,-148L791,-180Z" fill="#2d3254" stroke="#2d3254" stroke-width="1.51"/><path d="M1102,-72L973,-148L974,-62Z" fill="#282c50" stroke="#282c50" stroke-width="1.51"/><path d="M1102,-72L1031,36L1096,45Z" fill="#252a4d" stroke="#252a4d" stroke-width="1.51"/><path d="M465,-150L305,-151L452,-80Z" fill="#272b4f" stroke="#272b4f" stroke-width="1.51"/><path d="M791,-180L305,-151L465,-150Z" fill="#2c3053" stroke="#2c3053" stroke-width="1.51"/><path d="M1217,-57L1102,-72L1096,45Z" fill="#22274b" stroke="#22274b" stroke-width="1.51"/><path d="M1226,53L1096,45L1196,180Z" fill="#282c4f" stroke="#282c4f" stroke-width="1.51"/><path d="M89,969L187,1037L231,935Z" fill="#1c2147" stroke="#1c2147" stroke-width="1.51"/><path d="M-138,740L28,837L27,710Z" fill="#1e2448" stroke="#1e2448" stroke-width="1.51"/><path d="M1313,483L1353,405L1190,400Z" fill="#3a3e5f" stroke="#3a3e5f" stroke-width="1.51"/><path d="M1439,426L1353,405L1313,483Z" fill="#373b5c" stroke="#373b5c" stroke-width="1.51"/><path d="M1364,179L1226,53L1196,180Z" fill="#272b4e" stroke="#272b4e" stroke-width="1.51"/><path d="M89,969L231,935L88,856Z" fill="#1b2045" stroke="#1b2045" stroke-width="1.51"/><path d="M1353,405L1343,279L1215,281Z" fill="#323657" stroke="#323657" stroke-width="1.51"/><path d="M-36,378L-89,409L-35,479Z" fill="#333759" stroke="#333759" stroke-width="1.51"/><path d="M-35,479L-90,614L-14,634Z" fill="#2c3053" stroke="#2c3053" stroke-width="1.51"/><path d="M-14,634L-138,740L27,710Z" fill="#23284c" stroke="#23284c" stroke-width="1.51"/><path d="M-144,312L-36,378L-17,315Z" fill="#2d3154" stroke="#2d3154" stroke-width="1.51"/><path d="M1342,757L1249,635L1216,710Z" fill="#2b2f52" stroke="#2b2f52" stroke-width="1.51"/><path d="M-30,939L89,969L88,856Z" fill="#171d42" stroke="#171d42" stroke-width="1.51"/><path d="M-116,535L-90,614L-35,479Z" fill="#2e3255" stroke="#2e3255" stroke-width="1.51"/><path d="M28,837L-30,939L88,856Z" fill="#181d43" stroke="#181d43" stroke-width="1.51"/><path d="M21,185L-85,159L-17,315Z" fill="#25294d" stroke="#25294d" stroke-width="1.51"/><path d="M126,29L-26,85L94,179Z" fill="#1f2348" stroke="#1f2348" stroke-width="1.51"/><path d="M190,-42L112,-70L126,29Z" fill="#1b2046" stroke="#1b2046" stroke-width="1.51"/><path d="M197,-144L112,-70L190,-42Z" fill="#1c2146" stroke="#1c2146" stroke-width="1.51"/><path d="M1223,854L1342,757L1216,710Z" fill="#262a4e" stroke="#262a4e" stroke-width="1.51"/><path d="M1341,863L1342,757L1223,854Z" fill="#202549" stroke="#202549" stroke-width="1.51"/><path d="M305,-151L197,-144L190,-42Z" fill="#1f2449" stroke="#1f2449" stroke-width="1.51"/><path d="M-89,409L-116,535L-35,479Z" fill="#333759" stroke="#333759" stroke-width="1.51"/><path d="M1127,976L1212,977L1133,863Z" fill="#21264b" stroke="#21264b" stroke-width="1.51"/><path d="M1091,1090L1127,976L987,1032Z" fill="#262a4e" stroke="#262a4e" stroke-width="1.51"/><path d="M919,1082L1091,1090L987,1032Z" fill="#292d50" stroke="#292d50" stroke-width="1.51"/><path d="M342,1086L1091,1090L748,1082Z" fill="#34385a" stroke="#34385a" stroke-width="1.51"/><path d="M-11,-50L-26,85L126,29Z" fill="#171e43" stroke="#171e43" stroke-width="1.51"/><path d="M-89,409L-144,312L-116,535Z" fill="#333658" stroke="#333658" stroke-width="1.51"/><path d="M1226,53L1217,-57L1096,45Z" fill="#21264a" stroke="#21264a" stroke-width="1.51"/><path d="M1343,279L1364,179L1196,180Z" fill="#2a2e52" stroke="#2a2e52" stroke-width="1.51"/><path d="M1436,200L1364,179L1343,279Z" fill="#272c4f" stroke="#272c4f" stroke-width="1.51"/><path d="M1430,313L1343,279L1353,405Z" fill="#2f3355" stroke="#2f3355" stroke-width="1.51"/><path d="M1352,-62L1217,-57L1226,53Z" fill="#1c2247" stroke="#1c2247" stroke-width="1.51"/><path d="M1102,-72L1133,-146L973,-148Z" fill="#262a4e" stroke="#262a4e" stroke-width="1.51"/><path d="M1217,-57L1133,-146L1102,-72Z" fill="#21274b" stroke="#21274b" stroke-width="1.51"/><path d="M973,-148L1198,-186L791,-180Z" fill="#292d51" stroke="#292d51" stroke-width="1.51"/><path d="M-26,85L-85,159L21,185Z" fill="#1f2449" stroke="#1f2449" stroke-width="1.51"/><path d="M1462,506L1439,426L1313,483Z" fill="#34395a" stroke="#34395a" stroke-width="1.51"/><path d="M1462,506L1313,483L1360,619Z" fill="#313557" stroke="#313557" stroke-width="1.51"/><path d="M-85,159L-144,312L-17,315Z" fill="#282c4f" stroke="#282c4f" stroke-width="1.51"/><path d="M1456,594L1462,506L1360,619Z" fill="#2d3154" stroke="#2d3154" stroke-width="1.51"/><path d="M1352,919L1341,863L1223,854Z" fill="#1c2246" stroke="#1c2246" stroke-width="1.51"/><path d="M1352,919L1223,854L1212,977Z" fill="#1d2247" stroke="#1d2247" stroke-width="1.51"/><path d="M1439,426L1430,313L1353,405Z" fill="#313657" stroke="#313657" stroke-width="1.51"/><path d="M197,-144L96,-136L112,-70Z" fill="#1b2045" stroke="#1b2045" stroke-width="1.51"/><path d="M112,-70L-11,-50L126,29Z" fill="#181e43" stroke="#181e43" stroke-width="1.51"/><path d="M-26,85L-115,42L-85,159Z" fill="#1b2146" stroke="#1b2146" stroke-width="1.51"/><path d="M-138,740L-14,634L-90,614Z" fill="#262a4e" stroke="#262a4e" stroke-width="1.51"/><path d="M-114,864L-30,939L28,837Z" fill="#161c42" stroke="#161c42" stroke-width="1.51"/><path d="M89,969L88,1086L187,1037Z" fill="#1a2045" stroke="#1a2045" stroke-width="1.51"/><path d="M1217,-57L1198,-186L1133,-146Z" fill="#20254a" stroke="#20254a" stroke-width="1.51"/><path d="M1364,179L1357,74L1226,53Z" fill="#22264b" stroke="#22264b" stroke-width="1.51"/><path d="M1428,73L1357,74L1364,179Z" fill="#1f2449" stroke="#1f2449" stroke-width="1.51"/><path d="M1456,594L1360,619L1440,745Z" fill="#272c4f" stroke="#272c4f" stroke-width="1.51"/><path d="M1439,426L1529,314L1430,313Z" fill="#2e3254" stroke="#2e3254" stroke-width="1.51"/><path d="M-116,535L-138,740L-90,614Z" fill="#282c50" stroke="#282c50" stroke-width="1.51"/><path d="M-144,312L-138,740L-116,535Z" fill="#2f3356" stroke="#2f3356" stroke-width="1.51"/><path d="M1440,745L1360,619L1342,757Z" fill="#252a4d" stroke="#252a4d" stroke-width="1.51"/><path d="M1091,1090L1237,1042L1127,976Z" fill="#21264b" stroke="#21264b" stroke-width="1.51"/><path d="M4,1054L88,1086L89,969Z" fill="#171d43" stroke="#171d43" stroke-width="1.51"/><path d="M187,1037L88,1086L342,1086Z" fill="#1e2348" stroke="#1e2348" stroke-width="1.51"/><path d="M-97,1092L1344,1093L1091,1090Z" fill="#323658" stroke="#323658" stroke-width="1.51"/><path d="M96,-136L-11,-50L112,-70Z" fill="#171d43" stroke="#171d43" stroke-width="1.51"/><path d="M-85,159L-115,42L-144,312Z" fill="#21264a" stroke="#21264a" stroke-width="1.51"/><path d="M1430,313L1436,200L1343,279Z" fill="#292e51" stroke="#292e51" stroke-width="1.51"/><path d="M1529,314L1436,200L1430,313Z" fill="#292d50" stroke="#292d50" stroke-width="1.51"/><path d="M1237,1042L1352,919L1212,977Z" fill="#1c2247" stroke="#1c2247" stroke-width="1.51"/><path d="M1451,812L1440,745L1342,757Z" fill="#1f2449" stroke="#1f2449" stroke-width="1.51"/><path d="M1451,812L1342,757L1341,863Z" fill="#1e2348" stroke="#1e2348" stroke-width="1.51"/><path d="M-30,939L4,1054L89,969Z" fill="#151c42" stroke="#151c42" stroke-width="1.51"/><path d="M-138,740L-114,864L28,837Z" fill="#1b2045" stroke="#1b2045" stroke-width="1.51"/><path d="M1323,-182L1198,-186L1217,-57Z" fill="#1d2347" stroke="#1d2347" stroke-width="1.51"/><path d="M1133,-146L1198,-186L973,-148Z" fill="#24294d" stroke="#24294d" stroke-width="1.51"/><path d="M1352,-62L1226,53L1357,74Z" fill="#1c2146" stroke="#1c2146" stroke-width="1.51"/><path d="M-97,1092L4,1054L-30,939Z" fill="#141b41" stroke="#141b41" stroke-width="1.51"/><path d="M-11,-50L-115,42L-26,85Z" fill="#161c42" stroke="#161c42" stroke-width="1.51"/><path d="M1425,926L1451,812L1341,863Z" fill="#181e44" stroke="#181e44" stroke-width="1.51"/><path d="M1440,745L1573,649L1456,594Z" fill="#262a4e" stroke="#262a4e" stroke-width="1.51"/><path d="M1565,401L1439,426L1462,506Z" fill="#34385a" stroke="#34385a" stroke-width="1.51"/><path d="M1536,77L1428,73L1436,200Z" fill="#1d2247" stroke="#1d2247" stroke-width="1.51"/><path d="M1436,200L1428,73L1364,179Z" fill="#21254a" stroke="#21254a" stroke-width="1.51"/><path d="M1445,-38L1352,-62L1357,74Z" fill="#171d43" stroke="#171d43" stroke-width="1.51"/><path d="M1565,401L1529,314L1439,426Z" fill="#303456" stroke="#303456" stroke-width="1.51"/><path d="M1565,401L1462,506L1587,494Z" fill="#343759" stroke="#343759" stroke-width="1.51"/><path d="M1447,1070L1425,926L1352,919Z" fill="#161c42" stroke="#161c42" stroke-width="1.51"/><path d="M1352,919L1425,926L1341,863Z" fill="#181d43" stroke="#181d43" stroke-width="1.51"/><path d="M-114,864L-144,942L-30,939Z" fill="#141b41" stroke="#141b41" stroke-width="1.51"/><path d="M-138,740L-144,942L-114,864Z" fill="#181e44" stroke="#181e44" stroke-width="1.51"/><path d="M-144,312L-144,942L-138,740Z" fill="#262a4e" stroke="#262a4e" stroke-width="1.51"/><path d="M-11,-50L-149,-20L-115,42Z" fill="#141b41" stroke="#141b41" stroke-width="1.51"/><path d="M96,-136L-5,-180L-11,-50Z" fill="#161c42" stroke="#161c42" stroke-width="1.51"/><path d="M197,-144L-5,-180L96,-136Z" fill="#191f44" stroke="#191f44" stroke-width="1.51"/><path d="M305,-151L-5,-180L197,-144Z" fill="#1c2146" stroke="#1c2146" stroke-width="1.51"/><path d="M791,-180L-5,-180L305,-151Z" fill="#252a4d" stroke="#252a4d" stroke-width="1.51"/><path d="M-98,-191L-5,-180L791,-180Z" fill="#1f2449" stroke="#1f2449" stroke-width="1.51"/><path d="M1531,755L1440,745L1451,812Z" fill="#1e2348" stroke="#1e2348" stroke-width="1.51"/><path d="M1587,494L1462,506L1456,594Z" fill="#2f3356" stroke="#2f3356" stroke-width="1.51"/><path d="M-98,-191L-149,-20L-11,-50Z" fill="#141b41" stroke="#141b41" stroke-width="1.51"/><path d="M-115,42L-149,-20L-144,312Z" fill="#1d2247" stroke="#1d2247" stroke-width="1.51"/><path d="M-144,312L-149,-20L-144,942Z" fill="#323658" stroke="#323658" stroke-width="1.51"/><path d="M1553,834L1531,755L1451,812Z" fill="#1c2146" stroke="#1c2146" stroke-width="1.51"/><path d="M1425,926L1553,834L1451,812Z" fill="#181d43" stroke="#181d43" stroke-width="1.51"/><path d="M1237,1042L1344,1093L1352,919Z" fill="#1a2045" stroke="#1a2045" stroke-width="1.51"/><path d="M1091,1090L1344,1093L1237,1042Z" fill="#1e2348" stroke="#1e2348" stroke-width="1.51"/><path d="M-97,1092L1091,1090L342,1086Z" fill="#292d50" stroke="#292d50" stroke-width="1.51"/><path d="M1445,-38L1357,74L1428,73Z" fill="#191e44" stroke="#191e44" stroke-width="1.51"/><path d="M1461,-159L1323,-182L1352,-62Z" fill="#171d43" stroke="#171d43" stroke-width="1.51"/><path d="M1352,-62L1323,-182L1217,-57Z" fill="#1b2046" stroke="#1b2046" stroke-width="1.51"/><path d="M1573,649L1587,494L1456,594Z" fill="#2c3053" stroke="#2c3053" stroke-width="1.51"/><path d="M1531,755L1573,649L1440,745Z" fill="#22274b" stroke="#22274b" stroke-width="1.51"/><path d="M1536,77L1436,200L1579,168Z" fill="#1f2449" stroke="#1f2449" stroke-width="1.51"/><path d="M1536,77L1445,-38L1428,73Z" fill="#171d43" stroke="#171d43" stroke-width="1.51"/><path d="M88,1086L-97,1092L342,1086Z" fill="#1a1f45" stroke="#1a1f45" stroke-width="1.51"/><path d="M4,1054L-97,1092L88,1086Z" fill="#141b41" stroke="#141b41" stroke-width="1.51"/><path d="M-144,942L-97,1092L-30,939Z" fill="#141b41" stroke="#141b41" stroke-width="1.51"/><path d="M1579,168L1529,314L1565,401Z" fill="#2a2e51" stroke="#2a2e51" stroke-width="1.51"/><path d="M1579,168L1436,200L1529,314Z" fill="#252a4d" stroke="#252a4d" stroke-width="1.51"/><path d="M1567,924L1553,834L1425,926Z" fill="#151b41" stroke="#151b41" stroke-width="1.51"/><path d="M1531,755L1553,834L1573,649Z" fill="#202549" stroke="#202549" stroke-width="1.51"/><path d="M1587,494L1579,168L1565,401Z" fill="#2e3255" stroke="#2e3255" stroke-width="1.51"/><path d="M-5,-180L-98,-191L-11,-50Z" fill="#141b41" stroke="#141b41" stroke-width="1.51"/><path d="M1198,-186L-98,-191L791,-180Z" fill="#313557" stroke="#313557" stroke-width="1.51"/><path d="M1344,1093L1447,1070L1352,919Z" fill="#171d43" stroke="#171d43" stroke-width="1.51"/><path d="M1543,1037L1567,924L1425,926Z" fill="#141b41" stroke="#141b41" stroke-width="1.51"/><path d="M1553,834L1567,924L1573,649Z" fill="#1c2146" stroke="#1c2146" stroke-width="1.51"/><path d="M1573,649L1567,924L1587,494Z" fill="#24294c" stroke="#24294c" stroke-width="1.51"/><path d="M1547,-37L1445,-38L1536,77Z" fill="#141b41" stroke="#141b41" stroke-width="1.51"/><path d="M1547,-37L1461,-159L1445,-38Z" fill="#141b41" stroke="#141b41" stroke-width="1.51"/><path d="M1445,-38L1461,-159L1352,-62Z" fill="#151c42" stroke="#151c42" stroke-width="1.51"/><path d="M1579,168L1547,-37L1536,77Z" fill="#1a1f45" stroke="#1a1f45" stroke-width="1.51"/><path d="M1447,1070L1543,1037L1425,926Z" fill="#141b41" stroke="#141b41" stroke-width="1.51"/><path d="M1547,-37L1548,-183L1461,-159Z" fill="#141b41" stroke="#141b41" stroke-width="1.51"/><path d="M1461,-159L1548,-183L1323,-182Z" fill="#141b41" stroke="#141b41" stroke-width="1.51"/><path d="M1323,-182L1548,-183L1198,-186Z" fill="#181e44" stroke="#181e44" stroke-width="1.51"/><path d="M1579,168L1548,-183L1547,-37Z" fill="#141b41" stroke="#141b41" stroke-width="1.51"/></svg>